<?xml version="1.0" encoding="UTF-8" standalone="no"?>
<!DOCTYPE svg PUBLIC "-//W3C//DTD SVG 1.1//EN" "http://www.w3.org/Graphics/SVG/1.1/DTD/svg11.dtd">
<svg width="100%" height="100%" viewBox="0 0 1024 600" version="1.1" xmlns="http://www.w3.org/2000/svg" xmlns:xlink="http://www.w3.org/1999/xlink" xml:space="preserve" xmlns:serif="http://www.serif.com/" style="fill-rule:evenodd;clip-rule:evenodd;stroke-linejoin:round;stroke-miterlimit:2;">
    <g transform="matrix(1,0,0,1,-1.86797,-10.1467)">
        <g transform="matrix(1,0,0,1,-200.699,-104.301)">
            <ellipse cx="566.635" cy="262.512" rx="184.127" ry="185.976" style="fill:rgb(80,80,80);"/>
        </g>
        <g transform="matrix(1,0,0,1,-117.326,-33.1818)">
            <ellipse cx="249.917" cy="242.454" rx="132.591" ry="134.914" style="fill:rgb(80,80,80);"/>
        </g>
        <g transform="matrix(1,0,0,1,-369.086,-185.976)">
            <ellipse cx="903.644" cy="285.753" rx="120.356" ry="127.543" style="fill:rgb(61,61,61);"/>
        </g>
        <g transform="matrix(0.832335,0,0,0.729072,-398.115,-108.557)">
            <ellipse cx="903.644" cy="285.753" rx="120.356" ry="127.543" style="fill:rgb(61,61,61);"/>
        </g>
        <g transform="matrix(1,0,0,1,-353.581,-7.37081)">
            <ellipse cx="903.644" cy="285.753" rx="120.356" ry="127.543" style="fill:rgb(61,61,61);"/>
        </g>
        <g transform="matrix(1,0,0,1,-136.694,-16.0403)">
            <ellipse cx="903.644" cy="285.753" rx="120.356" ry="127.543" style="fill:rgb(61,61,61);"/>
        </g>
        <g transform="matrix(0.651433,0,0,0.599647,246.183,55.9691)">
            <ellipse cx="903.644" cy="285.753" rx="120.356" ry="127.543" style="fill:rgb(80,80,80);"/>
        </g>
        <g transform="matrix(1,0,0,1,51.5579,-185.976)">
            <ellipse cx="903.644" cy="285.753" rx="120.356" ry="127.543" style="fill:rgb(61,61,61);"/>
        </g>
        <g transform="matrix(1,0,0,1,51.5579,14.2468)">
            <ellipse cx="903.644" cy="285.753" rx="120.356" ry="127.543" style="fill:rgb(80,79,79);"/>
        </g>
        <g transform="matrix(1,0,0,1,-253.94,68.0744)">
            <ellipse cx="903.644" cy="285.753" rx="120.356" ry="127.543" style="fill:rgb(61,61,61);"/>
        </g>
        <g transform="matrix(1,0,0,1,-882.002,-185.976)">
            <ellipse cx="903.644" cy="285.753" rx="120.356" ry="127.543" style="fill:rgb(61,61,61);"/>
        </g>
        <g transform="matrix(1,0,0,1,-721.834,-255.086)">
            <ellipse cx="903.644" cy="285.753" rx="120.356" ry="127.543" style="fill:rgb(80,80,80);"/>
        </g>
        <g transform="matrix(1,0,0,1,-220.748,-185.976)">
            <ellipse cx="903.644" cy="285.753" rx="120.356" ry="127.543" style="fill:rgb(90,90,90);"/>
        </g>
        <g transform="matrix(1,0,0,1,-84.954,-185.976)">
            <ellipse cx="903.644" cy="285.753" rx="120.356" ry="127.543" style="fill:rgb(80,80,80);"/>
        </g>
    </g>
</svg>
