<?xml version="1.0" encoding="UTF-8" standalone="no"?>
<!DOCTYPE svg PUBLIC "-//W3C//DTD SVG 1.1//EN" "http://www.w3.org/Graphics/SVG/1.1/DTD/svg11.dtd">
<svg width="100%" height="100%" viewBox="0 0 1024 600" version="1.1" xmlns="http://www.w3.org/2000/svg" xmlns:xlink="http://www.w3.org/1999/xlink" xml:space="preserve" xmlns:serif="http://www.serif.com/" style="fill-rule:evenodd;clip-rule:evenodd;stroke-linejoin:round;stroke-miterlimit:2;">
    <g transform="matrix(0.601043,0,0,0.724696,198.64,105.893)">
        <path d="M488.364,242.77C488.364,242.77 407.627,332.726 407.627,371.278C407.627,408.235 443.804,438.239 488.364,438.239C532.924,438.239 569.1,408.235 569.1,371.278C569.1,332.726 488.364,242.77 488.364,242.77Z" style="fill:rgb(137,215,229);"/>
        <g transform="matrix(1.66377,0,0,1.37989,-330.492,-146.121)">
            <path d="M487.485,418.049C494.051,418.049 502.33,413.121 509.488,405.165C519.174,394.399 527.005,378.514 527.005,367.02C527.005,363.708 524.316,361.02 521.005,361.02C517.693,361.02 515.005,363.708 515.005,367.02C515.005,376.166 508.275,388.572 500.567,397.139C498.059,399.927 495.433,402.304 492.841,403.964C490.951,405.175 489.163,406.049 487.485,406.049C484.174,406.049 481.485,408.738 481.485,412.049C481.485,415.361 484.174,418.049 487.485,418.049Z" style="fill:rgb(235,235,235);"/>
        </g>
    </g>
</svg>
